<svg width="16" height="13" viewBox="0 0 16 13" fill="none" xmlns="http://www.w3.org/2000/svg">
<g clip-path="url(#clip0_13_110)">
<path d="M7.99998 1.22749L4.66498 0.00748748C4.37998 -0.0975125 4.06498 0.0299875 3.92748 0.299987L1.79498 4.52749C1.02498 6.05249 1.59498 7.87249 2.99748 8.71249L2.29748 10.6475L0.802479 10.0975C0.492479 9.98499 0.149979 10.145 0.034979 10.4575C-0.080021 10.77 0.082479 11.115 0.392479 11.2275L4.50748 12.735C4.81748 12.8475 5.15998 12.6875 5.27248 12.375C5.38498 12.0625 5.22498 11.7175 4.91498 11.605L3.41748 11.0575L4.11748 9.12499C5.81998 9.41499 7.50998 8.30499 7.86998 6.53499L7.99748 5.91499L8.12498 6.53499C8.48748 8.30499 10.175 9.41499 11.8775 9.12499L12.5775 11.0575L11.08 11.605C10.77 11.7175 10.61 12.0625 10.7225 12.375C10.835 12.6875 11.1775 12.8475 11.4875 12.735L15.6025 11.2275C15.9125 11.115 16.0725 10.77 15.96 10.4575C15.8475 10.145 15.505 9.98499 15.195 10.0975L13.6975 10.645L12.9975 8.70999C14.4 7.86999 14.9675 6.04999 14.2 4.52499L12.0725 0.299987C11.935 0.0274875 11.6175 -0.0975125 11.335 0.00748748L7.99998 1.22749ZM7.10748 4.30999L3.84748 3.11499L4.75498 1.31749L7.51498 2.32749L7.10998 4.30999H7.10748ZM8.88998 4.30999L8.48498 2.32749L11.245 1.31749L12.1525 3.11499L8.89248 4.30999H8.88998Z" fill="#0B281B"/>
</g>
<defs>
<clipPath id="clip0_13_110">
<rect width="16" height="12.8" fill="white"/>
</clipPath>
</defs>
</svg>
